<?xml version="1.0" standalone="no"?>
<!DOCTYPE svg PUBLIC "-//W3C//DTD SVG 20010904//EN"
 "http://www.w3.org/TR/2001/REC-SVG-20010904/DTD/svg10.dtd">
<svg version="1.0" xmlns="http://www.w3.org/2000/svg"
 width="700.000000pt" height="700.000000pt" viewBox="0 0 700.000000 700.000000"
 preserveAspectRatio="xMidYMid meet">
<metadata>
Created by potrace 1.11, written by Peter Selinger 2001-2013
</metadata>
<g transform="translate(0.000000,700.000000) scale(0.100000,-0.100000)"
fill="#000000" stroke="none">
<path d="M3285 6994 c-203 -20 -276 -28 -375 -45 -610 -105 -1195 -376 -1665
-772 -95 -81 -310 -294 -394 -392 -468 -542 -742 -1176 -833 -1925 -17 -137
-17 -583 0 -720 69 -569 227 -1028 514 -1491 145 -236 311 -440 525 -649 204
-200 371 -332 592 -468 463 -287 922 -445 1491 -514 137 -17 583 -17 720 0
569 69 1028 227 1491 514 360 222 692 528 958 882 323 430 549 960 640 1501
38 223 46 327 46 585 0 258 -8 362 -46 585 -105 627 -382 1216 -800 1700 -84
98 -299 311 -394 392 -518 437 -1148 710 -1845 798 -117 15 -536 28 -625 19z
m-220 -674 c59 -28 126 -93 153 -147 11 -21 25 -65 31 -98 14 -76 15 -981 1
-1056 -21 -112 -89 -200 -190 -248 -46 -22 -69 -26 -140 -26 -101 0 -154 21
-225 86 -58 53 -91 117 -105 200 -12 79 -13 939 -1 1026 20 136 109 241 241
284 14 5 61 7 105 6 61 -2 92 -8 130 -27z m-73 -1861 c173 -36 289 -208 257
-383 -14 -77 -40 -127 -92 -180 -70 -70 -125 -91 -237 -91 -81 0 -102 4 -140
24 -70 37 -99 62 -134 116 -44 66 -57 111 -57 187 0 157 107 291 258 327 53
13 84 13 145 0z m1011 -22 c67 -31 134 -98 166 -167 20 -44 25 -71 26 -135 0
-71 -4 -88 -33 -147 -103 -210 -368 -254 -533 -89 -91 91 -122 213 -84 337 30
100 135 198 239 223 62 15 161 5 219 -22z m-6 -941 c64 -29 137 -96 166 -152
8 -17 21 -58 28 -92 31 -151 -48 -300 -196 -369 l-60 -28 -540 0 -540 0 -58
23 c-70 29 -144 98 -177 167 -35 72 -40 189 -10 268 24 63 93 142 151 173 76
40 122 43 659 41 l515 -2 62 -29z m911 12 c52 -13 120 -61 161 -112 103 -129
91 -326 -28 -442 -137 -134 -351 -129 -480 11 -66 71 -86 124 -86 225 0 105
25 166 93 233 99 96 199 121 340 85z m-924 -949 c77 -28 146 -94 182 -171 24
-53 29 -75 29 -143 -1 -121 -50 -212 -151 -278 -84 -56 -115 -58 -681 -55
l-518 3 -67 33 c-122 60 -188 166 -188 301 0 81 11 118 57 188 34 52 108 110
168 131 20 7 216 11 572 11 524 1 544 0 597 -20z m943 0 c80 -30 162 -112 193
-194 44 -119 12 -263 -79 -354 -199 -199 -543 -73 -568 209 -22 244 221 425
454 339z m-1865 -951 c257 -119 256 -485 -2 -607 -74 -35 -201 -37 -272 -4
-269 124 -264 504 8 619 80 33 183 30 266 -8z m941 2 c76 -38 123 -85 159
-158 29 -59 33 -76 33 -147 -1 -65 -5 -91 -27 -136 -85 -184 -309 -252 -480
-147 -137 85 -194 252 -136 405 28 76 112 161 188 191 76 30 194 26 263 -8z"/>
</g>
</svg>
