<?xml version="1.0" standalone="no"?>
<!DOCTYPE svg PUBLIC "-//W3C//DTD SVG 20010904//EN"
 "http://www.w3.org/TR/2001/REC-SVG-20010904/DTD/svg10.dtd">
<svg version="1.0" xmlns="http://www.w3.org/2000/svg"
 width="700.000000pt" height="700.000000pt" viewBox="0 0 700.000000 700.000000"
 preserveAspectRatio="xMidYMid meet">
<metadata>
Created by potrace 1.11, written by Peter Selinger 2001-2013
</metadata>
<g transform="translate(0.000000,700.000000) scale(0.100000,-0.100000)"
fill="#000000" stroke="none">
<path d="M3285 6994 c-183 -17 -346 -38 -350 -44 -2 -4 18 -10 46 -13 101 -12
197 -88 248 -196 l26 -56 3 -507 c2 -326 -1 -528 -8 -565 -26 -141 -127 -245
-263 -273 -158 -32 -318 56 -379 209 -22 55 -23 64 -26 538 -3 509 1 593 39
670 29 60 97 129 152 153 56 26 47 25 -98 -10 -513 -122 -1025 -381 -1430
-723 -95 -81 -310 -294 -394 -392 -468 -542 -742 -1176 -833 -1925 -17 -137
-17 -583 0 -720 69 -569 227 -1028 514 -1491 145 -236 311 -440 525 -649 204
-200 371 -332 592 -468 463 -287 922 -445 1491 -514 137 -17 583 -17 720 0
569 69 1028 227 1491 514 360 222 692 528 958 882 323 430 549 960 640 1501
38 223 46 327 46 585 0 258 -8 362 -46 585 -105 627 -382 1216 -800 1700 -84
98 -299 311 -394 392 -518 437 -1148 710 -1845 798 -117 15 -535 28 -625 19z
m-225 -1965 c258 -121 258 -486 0 -608 -74 -35 -201 -37 -272 -4 -218 100
-268 390 -95 550 24 22 55 47 68 54 87 46 209 49 299 8z m941 -1 c72 -33 134
-95 167 -167 22 -46 26 -71 26 -136 0 -97 -29 -170 -94 -235 -67 -67 -138 -95
-240 -95 -74 0 -92 4 -143 30 -270 136 -240 528 48 622 63 20 170 12 236 -19z
m-1 -939 c70 -33 136 -99 169 -169 20 -44 25 -71 26 -135 0 -71 -4 -88 -33
-147 -39 -81 -102 -139 -179 -168 -54 -20 -70 -21 -607 -18 l-551 3 -45 24
c-70 37 -99 62 -134 116 -44 66 -57 111 -57 187 0 156 106 291 258 327 21 5
277 9 568 8 l530 -2 55 -26z m935 2 c66 -29 110 -66 148 -124 91 -140 75 -299
-42 -418 -183 -186 -492 -102 -561 154 -46 170 71 362 247 407 54 13 156 4
208 -19z m-938 -945 c64 -29 137 -96 166 -152 8 -17 21 -58 28 -92 31 -151
-48 -300 -196 -369 l-60 -28 -540 0 -540 0 -58 23 c-70 29 -144 98 -177 167
-35 72 -40 189 -10 268 24 63 93 142 151 173 76 40 122 43 659 41 l515 -2 62
-29z m911 12 c52 -13 120 -61 161 -112 103 -129 91 -326 -28 -442 -137 -134
-351 -129 -480 11 -66 71 -86 124 -86 225 0 105 25 166 93 233 99 96 199 121
340 85z m-1877 -943 c63 -22 130 -75 167 -131 115 -173 49 -402 -143 -491 -49
-22 -73 -27 -137 -27 -65 0 -86 5 -142 33 -120 59 -186 165 -186 300 0 81 11
118 57 188 34 52 108 110 168 131 45 16 165 14 216 -3z m953 -6 c77 -28 146
-94 182 -171 55 -120 33 -273 -53 -364 -133 -141 -352 -146 -485 -12 -63 63
-91 127 -96 218 -3 60 0 86 18 134 36 94 125 178 220 207 51 15 158 10 214
-12z"/>
</g>
</svg>
