<?xml version="1.0" standalone="no"?>
<!DOCTYPE svg PUBLIC "-//W3C//DTD SVG 20010904//EN"
 "http://www.w3.org/TR/2001/REC-SVG-20010904/DTD/svg10.dtd">
<svg version="1.0" xmlns="http://www.w3.org/2000/svg"
 width="700.000000pt" height="700.000000pt" viewBox="0 0 700.000000 700.000000"
 preserveAspectRatio="xMidYMid meet">
<metadata>
Created by potrace 1.11, written by Peter Selinger 2001-2013
</metadata>
<g transform="translate(0.000000,700.000000) scale(0.100000,-0.100000)"
fill="#000000" stroke="none">
<path d="M3285 6994 c-305 -30 -421 -48 -631 -99 -476 -117 -944 -348 -1339
-661 -141 -113 -436 -408 -549 -549 -409 -516 -656 -1108 -742 -1780 -25 -196
-25 -614 0 -810 86 -672 333 -1264 742 -1780 113 -141 408 -436 549 -549 516
-409 1108 -656 1780 -742 196 -25 614 -25 810 0 672 86 1264 333 1780 742 141
113 436 408 549 549 409 516 656 1108 742 1780 25 196 25 614 0 810 -86 672
-333 1264 -742 1780 -113 141 -408 436 -549 549 -515 408 -1109 657 -1775 741
-117 15 -536 28 -625 19z m520 -224 c636 -59 1251 -309 1760 -716 141 -113
376 -348 489 -489 300 -375 515 -807 630 -1262 69 -278 96 -500 96 -803 0
-303 -27 -525 -96 -803 -115 -455 -330 -887 -630 -1262 -113 -141 -348 -376
-489 -489 -509 -407 -1124 -657 -1760 -716 -141 -13 -469 -13 -610 0 -636 59
-1251 309 -1760 716 -141 113 -376 348 -489 489 -407 509 -657 1124 -716 1760
-13 141 -13 469 0 610 59 636 309 1251 716 1760 113 141 348 376 489 489 501
401 1122 656 1740 715 129 12 501 13 630 1z"/>
<path d="M2798 6327 c-70 -30 -114 -65 -154 -126 -59 -88 -58 -75 -62 -604 -4
-522 1 -594 42 -676 30 -58 102 -126 164 -154 71 -33 198 -31 272 4 101 48
169 136 190 248 14 75 13 980 -1 1056 -14 76 -40 127 -92 178 -64 64 -127 90
-222 94 -67 3 -89 0 -137 -20z"/>
<path d="M2847 4459 c-106 -25 -200 -106 -238 -208 -29 -78 -24 -195 11 -265
33 -65 93 -124 160 -155 46 -22 69 -26 145 -26 76 0 98 4 140 25 281 141 240
546 -62 625 -63 17 -99 17 -156 4z"/>
<path d="M3787 4460 c-195 -49 -306 -259 -237 -445 31 -82 113 -164 193 -194
167 -61 341 8 419 167 29 59 33 76 33 147 -1 64 -6 91 -26 135 -32 69 -99 136
-166 167 -58 27 -158 37 -216 23z"/>
<path d="M2850 3516 c-75 -17 -115 -40 -171 -97 -67 -68 -92 -139 -87 -244 2
-59 10 -93 28 -130 33 -69 107 -138 177 -167 l58 -23 540 0 540 0 60 28 c148
69 227 218 196 369 -7 34 -20 75 -28 92 -29 56 -102 123 -166 152 l-62 29
-515 2 c-382 1 -529 -1 -570 -11z"/>
<path d="M4747 3520 c-65 -11 -123 -43 -179 -97 -68 -67 -93 -128 -93 -233 0
-101 20 -154 86 -225 201 -218 561 -87 577 210 11 213 -178 380 -391 345z"/>
<path d="M2815 2568 c-60 -21 -134 -79 -168 -131 -46 -70 -57 -107 -57 -188 0
-135 66 -241 188 -301 l67 -33 518 -3 c566 -3 597 -1 681 55 101 66 150 157
151 278 0 68 -5 90 -29 143 -36 77 -105 143 -182 171 -53 20 -73 21 -597 20
-356 0 -552 -4 -572 -11z"/>
<path d="M4684 2559 c-135 -52 -224 -195 -211 -339 25 -282 369 -408 568 -209
91 91 123 235 79 354 -31 82 -113 164 -193 194 -74 27 -173 27 -243 0z"/>
<path d="M2796 1616 c-82 -35 -128 -77 -174 -161 -24 -45 -27 -60 -27 -150 0
-89 3 -106 27 -150 32 -62 103 -129 166 -158 71 -33 198 -31 272 4 209 99 261
374 101 537 -93 96 -246 128 -365 78z"/>
<path d="M3740 1618 c-76 -30 -160 -115 -188 -191 -58 -153 -1 -320 136 -405
171 -105 395 -37 480 147 22 45 26 71 27 136 0 71 -4 88 -33 147 -58 118 -154
180 -287 185 -64 3 -91 -1 -135 -19z"/>
</g>
</svg>
