<?xml version="1.0" standalone="no"?>
<!DOCTYPE svg PUBLIC "-//W3C//DTD SVG 20010904//EN"
 "http://www.w3.org/TR/2001/REC-SVG-20010904/DTD/svg10.dtd">
<svg version="1.0" xmlns="http://www.w3.org/2000/svg"
 width="700.000000pt" height="700.000000pt" viewBox="0 0 700.000000 700.000000"
 preserveAspectRatio="xMidYMid meet">
<metadata>
Created by potrace 1.11, written by Peter Selinger 2001-2013
</metadata>
<g transform="translate(0.000000,700.000000) scale(0.100000,-0.100000)"
fill="#000000" stroke="none">
<path d="M2478 6234 c-125 -29 -223 -126 -258 -252 -8 -31 -11 -208 -11 -596
-1 -631 -1 -630 79 -730 79 -99 226 -149 352 -121 120 26 226 131 260 256 18
63 17 1126 0 1189 -29 106 -96 186 -194 230 -75 34 -150 42 -228 24z"/>
<path d="M2463 4285 c-149 -45 -244 -170 -250 -326 -4 -142 64 -260 189 -324
239 -124 522 63 506 332 -11 182 -152 322 -331 329 -39 1 -91 -4 -114 -11z"/>
<path d="M3457 4277 c-132 -51 -219 -173 -224 -313 -3 -101 23 -174 89 -255
28 -33 104 -80 157 -96 169 -50 336 24 418 186 23 46 28 70 30 137 4 150 -64
263 -200 331 -73 37 -187 41 -270 10z"/>
<path d="M2501 3338 c-284 -48 -392 -410 -180 -604 48 -44 79 -60 143 -79 49
-14 125 -16 598 -16 299 0 554 3 568 5 73 13 140 49 198 107 76 75 112 209 87
319 -27 123 -141 237 -265 266 -44 10 -1091 12 -1149 2z"/>
<path d="M4382 3339 c-112 -21 -209 -94 -259 -197 -23 -46 -28 -72 -30 -138
-3 -139 46 -233 162 -311 86 -58 227 -67 325 -22 135 63 208 176 208 323 0 66
-22 148 -49 184 -94 125 -226 185 -357 161z"/>
<path d="M2449 2367 c-141 -48 -236 -174 -240 -318 -5 -173 117 -326 283 -357
25 -5 298 -8 605 -7 541 1 559 2 603 22 137 63 217 175 222 311 5 147 -68 269
-200 334 l-67 33 -570 2 c-567 3 -570 3 -636 -20z"/>
<path d="M4350 2374 c-93 -28 -154 -72 -202 -147 -44 -68 -54 -99 -57 -175 -5
-118 48 -230 139 -297 66 -48 122 -67 207 -68 98 -1 178 31 245 98 71 72 102
141 105 238 4 128 -46 227 -152 303 -80 56 -193 76 -285 48z"/>
<path d="M2482 1412 c-187 -67 -283 -278 -210 -459 40 -100 114 -171 211 -205
100 -34 210 -21 302 37 62 39 100 83 134 155 37 79 37 201 0 280 -33 72 -100
141 -169 176 -73 37 -189 44 -268 16z"/>
<path d="M3471 1414 c-299 -105 -325 -507 -42 -650 50 -26 66 -29 151 -29 84
0 101 3 150 28 139 71 207 189 198 343 -9 145 -107 267 -247 310 -60 18 -155
17 -210 -2z"/>
</g>
</svg>
