<?xml version="1.0" encoding="UTF-8"?>
<svg width="97px" height="205px" viewBox="0 0 97 205" version="1.1" xmlns="http://www.w3.org/2000/svg" xmlns:xlink="http://www.w3.org/1999/xlink">
    <!-- Generator: Sketch 48.2 (47327) - http://www.bohemiancoding.com/sketch -->
    <title>logo</title>
    <desc>Created with Sketch.</desc>
    <defs></defs>
    <g id="Page-1" stroke="none" stroke-width="1" fill="none" fill-rule="evenodd">
        <g id="Favicon" transform="translate(-81.000000, -28.000000)" fill="#FFFFFF" fill-rule="nonzero">
            <g transform="translate(81.000000, 27.000000)" id="logo">
                <g>
                    <g id="Ellipse" transform="translate(1.000000, 73.000000)">
                        <g id="path0_fill-link" transform="translate(0.000000, 0.272300)">
                            <path d="M26.1819,13.1106 C26.1819,20.3514 20.3209,26.2212 13.091,26.2212 C5.86102,26.2212 0,20.3514 0,13.1106 C0,5.86982 5.86102,0 13.091,0 C20.3209,0 26.1819,5.86982 26.1819,13.1106 Z" id="path0_fill"></path>
                        </g>
                    </g>
                    <g id="Ellipse" transform="translate(38.000000, 73.000000)">
                        <g id="path0_fill-link" transform="translate(0.900000, 0.223400)">
                            <path d="M26.1819,13.1106 C26.1819,20.3514 20.3209,26.2212 13.091,26.2212 C5.86102,26.2212 0,20.3514 0,13.1106 C0,5.86982 5.86102,0 13.091,0 C20.3209,0 26.1819,5.86982 26.1819,13.1106 Z" id="path0_fill"></path>
                        </g>
                    </g>
                    <g id="Ellipse" transform="translate(70.000000, 108.000000)">
                        <g id="path0_fill-link" transform="translate(0.800000, 0.774400)">
                            <path d="M26.1819,13.1106 C26.1819,20.3514 20.3209,26.2212 13.091,26.2212 C5.86102,26.2212 0,20.3514 0,13.1106 C0,5.86982 5.86102,0 13.091,0 C20.3209,0 26.1819,5.86982 26.1819,13.1106 Z" id="path0_fill"></path>
                        </g>
                    </g>
                    <g id="Ellipse" transform="translate(2.000000, 179.000000)">
                        <g id="path0_fill-link" transform="translate(0.400000, 0.778800)">
                            <path d="M26.1819,13.1106 C26.1819,20.3514 20.3209,26.2212 13.091,26.2212 C5.86102,26.2212 0,20.3514 0,13.1106 C0,5.86982 5.86102,0 13.091,0 C20.3209,0 26.1819,5.86982 26.1819,13.1106 Z" id="path0_fill"></path>
                        </g>
                    </g>
                    <g id="Ellipse" transform="translate(38.000000, 179.000000)">
                        <g id="path0_fill-link" transform="translate(0.900000, 0.778800)">
                            <path d="M26.1819,13.1106 C26.1819,20.3514 20.3209,26.2212 13.091,26.2212 C5.86102,26.2212 0,20.3514 0,13.1106 C0,5.86982 5.86102,0 13.091,0 C20.3209,0 26.1819,5.86982 26.1819,13.1106 Z" id="path0_fill"></path>
                        </g>
                    </g>
                    <g id="Ellipse" transform="translate(70.000000, 144.000000)">
                        <g id="path0_fill-link" transform="translate(0.800000, 0.276600)">
                            <path d="M26.1819,13.1106 C26.1819,20.3514 20.3209,26.2212 13.091,26.2212 C5.86102,26.2212 0,20.3514 0,13.1106 C0,5.86982 5.86102,0 13.091,0 C20.3209,0 26.1819,5.86982 26.1819,13.1106 Z" id="path0_fill"></path>
                        </g>
                    </g>
                    <g id="Rectangle" transform="translate(1.000000, 0.000000)">
                        <g id="path1_fill-link" transform="translate(13.499999, 32.942999) rotate(-90.000003) translate(-13.499999, -32.942999) translate(-18.500001, 19.442999)">
                            <path d="M0,13.091 C0,5.86102 5.86102,0 13.091,0 L50.8521,0 C58.082,0 63.943,5.86102 63.943,13.091 C63.943,20.3209 58.082,26.1819 50.8521,26.1819 L13.091,26.1819 C5.86102,26.1819 0,20.3209 0,13.091 Z" id="path1_fill"></path>
                        </g>
                    </g>
                    <g id="Rectangle" transform="translate(0.000000, 107.000000)">
                        <g id="path2_fill-link" transform="translate(32.800001, 14.495697) rotate(-179.999995) translate(-32.800001, -14.495697) translate(0.800001, 0.995697)">
                            <path d="M13.1106,0 L50.7365,0 C57.9773,0 63.8471,5.86982 63.8471,13.1106 C63.8471,20.3514 57.9773,26.2212 50.7365,26.2212 L13.1106,26.2212 C5.86982,26.2212 0,20.3514 0,13.1106 C0,5.86982 5.86982,0 13.1106,0 Z" id="path2_fill"></path>
                        </g>
                    </g>
                    <g id="Rectangle" transform="translate(0.000000, 143.000000)">
                        <g id="path2_fill-link" transform="translate(32.800001, 13.997897) rotate(-179.999995) translate(-32.800001, -13.997897) translate(0.800001, 0.497897)">
                            <path d="M0,13.1106 C0,5.86982 5.86982,0 13.1106,0 L50.7365,0 C57.9773,0 63.8471,5.86982 63.8471,13.1106 C63.8471,20.3514 57.9773,26.2212 50.7365,26.2212 L13.1106,26.2212 C5.86982,26.2212 0,20.3514 0,13.1106 Z" id="path2_fill"></path>
                        </g>
                    </g>
                </g>
            </g>
        </g>
    </g>
</svg>