<svg width="300" height="125" viewBox="0 0 300 125" version="1.1" xmlns="http://www.w3.org/2000/svg" xmlns:xlink="http://www.w3.org/1999/xlink">
<title>Logo</title>
<desc>Created using Figma</desc>
<g id="Canvas" transform="translate(-11174 513)">
<clipPath id="clip-0" clip-rule="evenodd">
<path d="M 11174 -513L 11474 -513L 11474 -388L 11174 -388L 11174 -513Z" fill="#FFFFFF"/>
</clipPath>
<g id="Logo" clip-path="url(#clip-0)">
<g id="logo">
<g id="Ellipse">
<use xlink:href="#path0_fill" transform="translate(11201 -464.803)" fill="#333333"/>
</g>
<g id="Ellipse">
<use xlink:href="#path0_fill" transform="translate(11219 -464.826)" fill="#2F80ED"/>
</g>
<g id="Ellipse">
<use xlink:href="#path0_fill" transform="translate(11234.2 -448.004)" fill="#BB6BD9"/>
</g>
<g id="Ellipse">
<use xlink:href="#path0_fill" transform="translate(11201.7 -414.407)" fill="#EB5757"/>
</g>
<g id="Ellipse">
<use xlink:href="#path0_fill" transform="translate(11219 -414.407)" fill="#F2C94C"/>
</g>
<g id="Ellipse">
<use xlink:href="#path0_fill" transform="translate(11234.2 -431.206)" fill="#27AE60"/>
</g>
<g id="Rectangle">
<use xlink:href="#path1_fill" transform="matrix(-4.39271e-08 -1 1 -4.34968e-08 11201 -468.744)" fill="#333333"/>
</g>
<g id="Rectangle">
<use xlink:href="#path2_fill" transform="matrix(-1 -8.69936e-08 8.78541e-08 -1 11231.4 -435.597)" fill="#333333"/>
</g>
<g id="Rectangle">
<use xlink:href="#path2_fill" transform="matrix(-1 -8.69936e-08 8.78541e-08 -1 11231.4 -418.799)" fill="#333333"/>
</g>
</g>
<g id="Brewitti">
<use xlink:href="#path3_fill" transform="translate(11269 -471)"/>
</g>
</g>
</g>
<defs>
<path id="path0_fill" d="M 12.4683 6.20356C 12.4683 9.62969 9.6772 12.4071 6.23417 12.4071C 2.79113 12.4071 0 9.62969 0 6.20356C 0 2.77743 2.79113 0 6.23417 0C 9.6772 0 12.4683 2.77743 12.4683 6.20356Z"/>
<path id="path1_fill" d="M 0 6.23417C 0 2.79113 2.79113 0 6.23417 0L 24.0218 0C 27.4648 0 30.256 2.79113 30.256 6.23417L 30.256 6.23417C 30.256 9.6772 27.4648 12.4683 24.0218 12.4683L 6.23417 12.4683C 2.79113 12.4683 0 9.6772 0 6.23417L 0 6.23417Z"/>
<path id="path2_fill" d="M 0 6.20356C 0 2.77743 2.77743 0 6.20356 0L 24.2017 0C 27.6278 0 30.4052 2.77743 30.4052 6.20356L 30.4052 6.20356C 30.4052 9.62969 27.6278 12.4071 24.2017 12.4071L 6.20356 12.4071C 2.77743 12.4071 0 9.62969 0 6.20356L 0 6.20356Z"/>
<path id="path3_fill" d="M 24.072 30.664C 26.168 31.112 27.8 32.048 28.968 33.472C 30.136 34.88 30.72 36.736 30.72 39.04C 30.72 41.312 30.136 43.216 28.968 44.752C 27.816 46.272 25.952 47.432 23.376 48.232C 20.8 49.016 17.408 49.408 13.2 49.408C 11.696 49.408 10.024 49.344 8.184 49.216C 6.36 49.088 4.696 48.92 3.192 48.712L 3.192 14.272C 4.872 13.904 6.72 13.608 8.736 13.384C 10.752 13.16 12.704 13.048 14.592 13.048C 19.84 13.048 23.672 13.864 26.088 15.496C 28.52 17.112 29.736 19.592 29.736 22.936C 29.736 24.824 29.24 26.456 28.248 27.832C 27.256 29.208 25.864 30.152 24.072 30.664ZM 15.576 18.736C 13.976 18.736 12.4 18.88 10.848 19.168L 10.848 27.928L 15.888 27.928C 18.224 27.928 19.888 27.56 20.88 26.824C 21.888 26.072 22.392 24.912 22.392 23.344C 22.392 22.256 22.168 21.376 21.72 20.704C 21.272 20.032 20.552 19.536 19.56 19.216C 18.568 18.896 17.24 18.736 15.576 18.736ZM 15.264 43.696C 17.328 43.696 18.952 43.52 20.136 43.168C 21.336 42.8 22.192 42.256 22.704 41.536C 23.216 40.816 23.472 39.88 23.472 38.728C 23.472 37 22.936 35.744 21.864 34.96C 20.808 34.176 19.072 33.784 16.656 33.784L 10.848 33.784L 10.848 43.504C 12.048 43.632 13.52 43.696 15.264 43.696ZM 34.8248 22.744L 41.0888 22.744L 41.6887 26.128L 42.0487 26.128C 42.7687 24.864 43.7287 23.928 44.9288 23.32C 46.1287 22.696 47.4887 22.384 49.0087 22.384C 49.7767 22.384 50.4808 22.448 51.1208 22.576L 51.1208 29.512C 50.4168 29.368 49.5528 29.296 48.5288 29.296C 47.3608 29.296 46.2167 29.52 45.0968 29.968C 43.9768 30.416 43.1128 31.032 42.5048 31.816L 42.5048 49L 34.8248 49L 34.8248 22.744ZM 76.3657 38.104L 60.4297 38.104C 60.5097 39.512 60.8058 40.624 61.3178 41.44C 61.8458 42.24 62.6617 42.824 63.7657 43.192C 64.8697 43.544 66.3738 43.72 68.2777 43.72C 70.2777 43.72 72.4857 43.44 74.9017 42.88L 74.9017 48.616C 72.3417 49.208 69.7738 49.504 67.1977 49.504C 63.8537 49.504 61.1178 49.032 58.9898 48.088C 56.8777 47.128 55.3098 45.648 54.2858 43.648C 53.2617 41.648 52.7497 39.048 52.7497 35.848C 52.7497 32.968 53.2218 30.52 54.1658 28.504C 55.1258 26.472 56.5177 24.936 58.3417 23.896C 60.1657 22.856 62.3738 22.336 64.9657 22.336C 68.6778 22.336 71.5017 23.512 73.4377 25.864C 75.3897 28.2 76.3657 31.608 76.3657 36.088L 76.3657 38.104ZM 64.8697 27.184C 63.4137 27.184 62.3177 27.68 61.5817 28.672C 60.8458 29.664 60.4537 31.328 60.4057 33.664L 69.2138 33.664C 69.1658 31.312 68.7897 29.648 68.0857 28.672C 67.3817 27.68 66.3097 27.184 64.8697 27.184ZM 112.793 22.744L 119.777 22.744L 112.745 49L 104.249 49L 99.1369 30.016L 93.9049 49L 85.4089 49L 78.3529 22.744L 85.6249 22.744L 90.1129 40.792L 94.9849 22.744L 103.481 22.744L 108.209 40.528L 112.793 22.744ZM 123.653 49L 123.653 22.744L 131.333 22.744L 131.333 49L 123.653 49ZM 127.493 18.928C 125.909 18.928 124.717 18.584 123.917 17.896C 123.133 17.208 122.741 16.224 122.741 14.944C 122.741 13.648 123.133 12.656 123.917 11.968C 124.701 11.28 125.893 10.936 127.493 10.936C 129.077 10.936 130.261 11.28 131.045 11.968C 131.829 12.656 132.221 13.648 132.221 14.944C 132.221 16.224 131.829 17.208 131.045 17.896C 130.261 18.584 129.077 18.928 127.493 18.928ZM 150.835 43.168C 151.507 43.168 152.427 43.064 153.595 42.856L 153.595 48.928C 151.979 49.296 150.363 49.48 148.747 49.48C 145.515 49.48 143.059 48.68 141.379 47.08C 139.715 45.48 138.883 43 138.883 39.64L 138.883 28.792L 134.611 28.792L 134.611 22.744L 138.883 22.744L 140.275 13.48L 146.563 13.48L 146.563 22.744L 153.451 22.744L 153.451 28.792L 146.563 28.792L 146.563 38.44C 146.563 39.624 146.707 40.56 146.995 41.248C 147.299 41.936 147.755 42.432 148.363 42.736C 148.987 43.024 149.811 43.168 150.835 43.168ZM 169.304 43.168C 169.976 43.168 170.896 43.064 172.064 42.856L 172.064 48.928C 170.448 49.296 168.832 49.48 167.216 49.48C 163.984 49.48 161.528 48.68 159.848 47.08C 158.184 45.48 157.352 43 157.352 39.64L 157.352 28.792L 153.08 28.792L 153.08 22.744L 157.352 22.744L 158.744 13.48L 165.032 13.48L 165.032 22.744L 171.92 22.744L 171.92 28.792L 165.032 28.792L 165.032 38.44C 165.032 39.624 165.176 40.56 165.464 41.248C 165.768 41.936 166.224 42.432 166.832 42.736C 167.456 43.024 168.28 43.168 169.304 43.168ZM 176.012 49L 176.012 22.744L 183.692 22.744L 183.692 49L 176.012 49ZM 179.852 18.928C 178.268 18.928 177.076 18.584 176.276 17.896C 175.492 17.208 175.1 16.224 175.1 14.944C 175.1 13.648 175.492 12.656 176.276 11.968C 177.06 11.28 178.252 10.936 179.852 10.936C 181.436 10.936 182.62 11.28 183.404 11.968C 184.188 12.656 184.58 13.648 184.58 14.944C 184.58 16.224 184.188 17.208 183.404 17.896C 182.62 18.584 181.436 18.928 179.852 18.928Z"/>
</defs>
</svg>
